HIERARCHY
ROOT Root
{
  OFFSET 0.0 0.0 0.0
  CHANNELS 6 Xposition Yposition Zposition Zrotation Yrotation Xrotation
  JOINT Hips
  {
    OFFSET 0.0 100.0 0.0
    CHANNELS 6 Xposition Yposition Zposition Zrotation Yrotation Xrotation
    JOINT Spine1
    {
      OFFSET 5.003913 -0.037094 -0.013727
      CHANNELS 3 Zrotation Yrotation Xrotation
      JOINT Spine2
      {
        OFFSET 7.125363 -1e-06 0.0
        CHANNELS 3 Zrotation Yrotation Xrotation
        JOINT Chest
        {
          OFFSET 7.594027 1e-06 0.0
          CHANNELS 3 Zrotation Yrotation Xrotation
          JOINT Neck1
          {
            OFFSET 26.313086 -0.460272 -0.181672
            CHANNELS 3 Zrotation Yrotation Xrotation
            JOINT Neck2
            {
              OFFSET 8.045911 0.0 0.0
              CHANNELS 3 Zrotation Yrotation Xrotation
              JOINT Head
              {
                OFFSET 6.432774 0.0 0.0
                CHANNELS 3 Zrotation Yrotation Xrotation
                JOINT HeadEnd
                {
                  OFFSET 16.169773 0.06451 0.00362
                  CHANNELS 3 Zrotation Yrotation Xrotation
                }
                JOINT Jaw
                {
                  OFFSET 0.108741 3.12938 0.002639
                  CHANNELS 3 Zrotation Yrotation Xrotation
                }
                JOINT LeftEye
                {
                  OFFSET 4.45173 8.166359 3.206392
                  CHANNELS 3 Zrotation Yrotation Xrotation
                }
                JOINT RightEye
                {
                  OFFSET 4.436895 8.135758 -3.222429
                  CHANNELS 3 Zrotation Yrotation Xrotation
                }
              }
            }
          }
          JOINT LeftShoulder
          {
            OFFSET 23.218927 5.195579 1.621656
            CHANNELS 3 Zrotation Yrotation Xrotation
            JOINT LeftArm
            {
              OFFSET 15.902118 2e-06 -2e-06
              CHANNELS 3 Zrotation Yrotation Xrotation
              JOINT LeftForeArm
              {
                OFFSET 28.739307 0.0 -1e-06
                CHANNELS 3 Zrotation Yrotation Xrotation
                JOINT LeftHand
                {
                  OFFSET 27.093981 -4e-06 0.0
                  CHANNELS 3 Zrotation Yrotation Xrotation
                  JOINT LeftHandThumb1
                  {
                    OFFSET 2.276781 3.380274 0.83384
                    CHANNELS 3 Zrotation Yrotation Xrotation
                    JOINT LeftHandThumb2
                    {
                      OFFSET 4.705309 -1e-06 -1e-06
                      CHANNELS 3 Zrotation Yrotation Xrotation
                      JOINT LeftHandThumb3
                      {
                        OFFSET 2.798515 0.0 3e-06
                        CHANNELS 3 Zrotation Yrotation Xrotation
                        JOINT LeftHandThumbEnd
                        {
                          OFFSET 3.180793 4e-06 -4e-06
                          CHANNELS 3 Zrotation Yrotation Xrotation
                        }
                      }
                    }
                  }
                  JOINT LeftHandIndex1
                  {
                    OFFSET 3.247786 2.352677 0.137192
                    CHANNELS 3 Zrotation Yrotation Xrotation
                    JOINT LeftHandIndex2
                    {
                      OFFSET 6.367095 1e-06 0.0
                      CHANNELS 3 Zrotation Yrotation Xrotation
                      JOINT LeftHandIndex3
                      {
                        OFFSET 3.662364 0.0 0.0
                        CHANNELS 3 Zrotation Yrotation Xrotation
                        JOINT LeftHandIndex4
                        {
                          OFFSET 2.329242 4e-06 -4e-06
                          CHANNELS 3 Zrotation Yrotation Xrotation
                          JOINT LeftHandIndexEnd
                          {
                            OFFSET 2.767823 1e-06 0.0
                            CHANNELS 3 Zrotation Yrotation Xrotation
                          }
                        }
                      }
                    }
                  }
                  JOINT LeftHandMiddle1
                  {
                    OFFSET 3.163612 0.945023 -0.406112
                    CHANNELS 3 Zrotation Yrotation Xrotation
                    JOINT LeftHandMiddle2
                    {
                      OFFSET 6.276789 3e-06 0.0
                      CHANNELS 3 Zrotation Yrotation Xrotation
                      JOINT LeftHandMiddle3
                      {
                        OFFSET 4.35652 -1e-06 4e-06
                        CHANNELS 3 Zrotation Yrotation Xrotation
                        JOINT LeftHandMiddle4
                        {
                          OFFSET 2.996877 0.0 8e-06
                          CHANNELS 3 Zrotation Yrotation Xrotation
                          JOINT LeftHandMiddleEnd
                          {
                            OFFSET 2.323256 3e-06 -4e-06
                            CHANNELS 3 Zrotation Yrotation Xrotation
                          }
                        }
                      }
                    }
                  }
                  JOINT LeftHandRing1
                  {
                    OFFSET 2.882606 -0.309162 0.107445
                    CHANNELS 3 Zrotation Yrotation Xrotation
                    JOINT LeftHandRing2
                    {
                      OFFSET 6.033198 0.0 4e-06
                      CHANNELS 3 Zrotation Yrotation Xrotation
                      JOINT LeftHandRing3
                      {
                        OFFSET 4.350578 3e-06 0.0
                        CHANNELS 3 Zrotation Yrotation Xrotation
                        JOINT LeftHandRing4
                        {
                          OFFSET 2.651321 2e-06 -7e-06
                          CHANNELS 3 Zrotation Yrotation Xrotation
                          JOINT LeftHandRingEnd
                          {
                            OFFSET 1.937663 1e-06 -4e-06
                            CHANNELS 3 Zrotation Yrotation Xrotation
                          }
                        }
                      }
                    }
                  }
                  JOINT LeftHandPinky1
                  {
                    OFFSET 2.865315 -1.525436 0.575687
                    CHANNELS 3 Zrotation Yrotation Xrotation
                    JOINT LeftHandPinky2
                    {
                      OFFSET 5.54936 1e-06 -8e-06
                      CHANNELS 3 Zrotation Yrotation Xrotation
                      JOINT LeftHandPinky3
                      {
                        OFFSET 3.070974 0.0 -4e-06
                        CHANNELS 3 Zrotation Yrotation Xrotation
                        JOINT LeftHandPinky4
                        {
                          OFFSET 1.549672 1e-06 0.0
                          CHANNELS 3 Zrotation Yrotation Xrotation
                          JOINT LeftHandPinkyEnd
                          {
                            OFFSET 1.952123 0.0 0.0
                            CHANNELS 3 Zrotation Yrotation Xrotation
                          }
                        }
                      }
                    }
                  }
                }
              }
            }
          }
          JOINT RightShoulder
          {
            OFFSET 23.161716 5.296122 -1.380114
            CHANNELS 3 Zrotation Yrotation Xrotation
            JOINT RightArm
            {
              OFFSET -16.027195 -2e-06 1.1e-05
              CHANNELS 3 Zrotation Yrotation Xrotation
              JOINT RightForeArm
              {
                OFFSET -28.736639 4e-06 2e-06
                CHANNELS 3 Zrotation Yrotation Xrotation
                JOINT RightHand
                {
                  OFFSET -27.133619 6e-06 0.0
                  CHANNELS 3 Zrotation Yrotation Xrotation
                  JOINT RightHandThumb1
                  {
                    OFFSET -2.274328 -3.351035 -0.83067
                    CHANNELS 3 Zrotation Yrotation Xrotation
                    JOINT RightHandThumb2
                    {
                      OFFSET -4.703594 -3e-06 2e-06
                      CHANNELS 3 Zrotation Yrotation Xrotation
                      JOINT RightHandThumb3
                      {
                        OFFSET -2.794935 -4e-06 -3e-06
                        CHANNELS 3 Zrotation Yrotation Xrotation
                        JOINT RightHandThumbEnd
                        {
                          OFFSET -3.183852 4e-06 1e-06
                          CHANNELS 3 Zrotation Yrotation Xrotation
                        }
                      }
                    }
                  }
                  JOINT RightHandIndex1
                  {
                    OFFSET -3.253496 -2.33755 -0.127667
                    CHANNELS 3 Zrotation Yrotation Xrotation
                    JOINT RightHandIndex2
                    {
                      OFFSET -6.344434 0.0 0.0
                      CHANNELS 3 Zrotation Yrotation Xrotation
                      JOINT RightHandIndex3
                      {
                        OFFSET -3.654871 0.0 -8e-06
                        CHANNELS 3 Zrotation Yrotation Xrotation
                        JOINT RightHandIndex4
                        {
                          OFFSET -2.327586 -1e-06 0.0
                          CHANNELS 3 Zrotation Yrotation Xrotation
                          JOINT RightHandIndexEnd
                          {
                            OFFSET -2.770001 3e-06 8e-06
                            CHANNELS 3 Zrotation Yrotation Xrotation
                          }
                        }
                      }
                    }
                  }
                  JOINT RightHandMiddle1
                  {
                    OFFSET -3.168223 -0.944764 0.411762
                    CHANNELS 3 Zrotation Yrotation Xrotation
                    JOINT RightHandMiddle2
                    {
                      OFFSET -6.266691 -1e-06 -4e-06
                      CHANNELS 3 Zrotation Yrotation Xrotation
                      JOINT RightHandMiddle3
                      {
                        OFFSET -4.348901 0.0 0.0
                        CHANNELS 3 Zrotation Yrotation Xrotation
                        JOINT RightHandMiddle4
                        {
                          OFFSET -3.00024 2e-06 -4e-06
                          CHANNELS 3 Zrotation Yrotation Xrotation
                          JOINT RightHandMiddleEnd
                          {
                            OFFSET -2.321477 -4e-06 -4e-06
                            CHANNELS 3 Zrotation Yrotation Xrotation
                          }
                        }
                      }
                    }
                  }
                  JOINT RightHandRing1
                  {
                    OFFSET -2.885654 0.293261 -0.119232
                    CHANNELS 3 Zrotation Yrotation Xrotation
                    JOINT RightHandRing2
                    {
                      OFFSET -6.032835 -1e-06 -4e-06
                      CHANNELS 3 Zrotation Yrotation Xrotation
                      JOINT RightHandRing3
                      {
                        OFFSET -4.33881 0.0 -4e-06
                        CHANNELS 3 Zrotation Yrotation Xrotation
                        JOINT RightHandRing4
                        {
                          OFFSET -2.654903 -4e-06 -4e-06
                          CHANNELS 3 Zrotation Yrotation Xrotation
                          JOINT RightHandRingEnd
                          {
                            OFFSET -1.935122 0.0 4e-06
                            CHANNELS 3 Zrotation Yrotation Xrotation
                          }
                        }
                      }
                    }
                  }
                  JOINT RightHandPinky1
                  {
                    OFFSET -2.866241 1.503904 -0.60527
                    CHANNELS 3 Zrotation Yrotation Xrotation
                    JOINT RightHandPinky2
                    {
                      OFFSET -5.553177 -2e-06 0.0
                      CHANNELS 3 Zrotation Yrotation Xrotation
                      JOINT RightHandPinky3
                      {
                        OFFSET -3.062664 -1e-06 -4e-06
                        CHANNELS 3 Zrotation Yrotation Xrotation
                        JOINT RightHandPinky4
                        {
                          OFFSET -1.546529 2e-06 4e-06
                          CHANNELS 3 Zrotation Yrotation Xrotation
                          JOINT RightHandPinkyEnd
                          {
                            OFFSET -1.952341 0.0 -4e-06
                            CHANNELS 3 Zrotation Yrotation Xrotation
                          }
                        }
                      }
                    }
                  }
                }
              }
            }
          }
        }
      }
    }
    JOINT LeftLeg
    {
      OFFSET -8.443107 2.567604 10.043214
      CHANNELS 3 Zrotation Yrotation Xrotation
      JOINT LeftShin
      {
        OFFSET 43.229198 1e-06 -1e-06
        CHANNELS 3 Zrotation Yrotation Xrotation
        JOINT LeftFoot
        {
          OFFSET 42.298611 1e-06 1e-06
          CHANNELS 3 Zrotation Yrotation Xrotation
          JOINT LeftToeBase
          {
            OFFSET 14.165858 1e-06 0.0
            CHANNELS 3 Zrotation Yrotation Xrotation
            JOINT LeftToeEnd
            {
              OFFSET 6.7141 -0.234461 0.0
              CHANNELS 3 Zrotation Yrotation Xrotation
            }
          }
        }
      }
    }
    JOINT RightLeg
    {
      OFFSET -8.303923 2.592729 -10.047278
      CHANNELS 3 Zrotation Yrotation Xrotation
      JOINT RightShin
      {
        OFFSET -43.369682 0.0 1e-06
        CHANNELS 3 Zrotation Yrotation Xrotation
        JOINT RightFoot
        {
          OFFSET -42.260784 4e-06 2e-06
          CHANNELS 3 Zrotation Yrotation Xrotation
          JOINT RightToeBase
          {
            OFFSET -14.222245 -2e-06 -1e-06
            CHANNELS 3 Zrotation Yrotation Xrotation
            JOINT RightToeEnd
            {
              OFFSET -6.660062 0.232574 -2e-06
              CHANNELS 3 Zrotation Yrotation Xrotation
            }
          }
        }
      }
    }
  }
}
MOTION
Frames: 5
Frame Time: 0.03333333333333333
0.0 0.0 0.0 0.0 -0.0 0.0 1.376783 99.833679 0.224857 91.336334 3.692622 90.144516 -3.958142 -0.273187 0.441242 -12.176433 -0.056267 1.094241 16.965107 0.45945 -0.456703 20.551498 0.795448 2.474428 -2.675384 -0.570284 -0.099851 -33.583572 -2.343353 -0.331257 7e-06 -0.0 -0.0 0.035953 0.015451 0.034226 0.062395 -0.087208 0.025607 0.120104 0.108459 0.045803 -119.766342 -72.967224 128.572906 39.161755 -19.509436 -54.486683 67.802216 2.261513 0.315182 14.69606 6.782422 -65.36499 17.636631 -26.322741 52.411201 -19.466665 -14.395602 29.410395 1e-06 -8.774822 -2e-06 14.810489 -17.711342 7.214204 -0.609773 -1.795655 -3.889328 -4.807092 -11.046812 -2.93785 3e-06 -20.976023 1e-06 -5.019974 -25.033566 -4.031882 5e-06 2e-06 1e-06 -10.634534 -5.686973 -3.565587 10.573276 -17.922953 -3.113901 3e-06 -13.821211 2e-06 -0.501781 -31.181511 -4.027014 -13.092835 -60.550312 8.880645 -13.982716 -7.150199 -2.875041 13.772735 -8.401495 -3.218242 0.347728 -34.211559 0.771658 -0.963031 -17.733372 2.621021 0.0 1e-06 -1e-06 -17.346422 -20.095221 -4.201779 21.757561 -1.638374 3.866429 0.0 -6.338825 2e-06 -1.697591 -22.591749 -6.194007 0.0 -5e-06 -2e-06 27.959202 -82.858421 163.159103 22.502165 -13.695852 -51.652946 60.219238 0.005209 0.475298 8.509336 0.751171 -64.970886 22.18211 -20.375891 49.933319 -16.701815 -16.743534 28.47653 -3e-06 -12.690601 -1e-06 16.005154 -17.467733 3.337984 -0.105922 -1.513857 -4.275879 -5.039039 -5.61287 -2.953556 5e-06 -11.020523 -1e-06 -6.111301 -15.89533 -3.840469 -2e-06 1e-06 1e-06 -10.283373 -5.680286 -4.341836 11.028296 -11.302406 -2.372633 -1.384267 -14.23858 -6.320121 -0.625436 -26.924191 -3.827603 -4.772546 -49.941662 -3.228821 -13.708528 -7.363475 -3.720936 18.141151 -14.052739 -3.242676 5e-06 -18.78727 -2e-06 -0.429712 -8.456043 2.555503 2e-06 -1e-06 -0.0 -15.923541 -20.094482 -5.47358 30.419218 -7.190825 1.735925 1e-06 -8.162925 -1e-06 -1.861907 -22.861467 -6.167943 -0.0 -3e-06 1e-06 -176.059525 1.067361 1.94047 10.361577 -0.038981 -0.156944 -79.247772 -13.964598 -5.019095 -4.31115 1.483583 2.130135 -0.999999 -0.0 -0.0 3.42779 -5.463984 2.211774 12.536406 -0.004082 0.107465 -81.027916 -5.767521 -6.414003 -4.683774 0.713072 1.700628 -1.000002 0.0 -0.0 
0.0 0.0 0.0 0.0 -0.0 0.0 1.400371 99.828094 0.166713 91.326645 3.696604 90.149841 -3.91558 -0.277258 0.435713 -12.166111 -0.041468 1.107606 16.949062 0.493582 -0.469678 20.526724 0.827051 2.417372 -2.666872 -0.573259 -0.07271 -33.495163 -2.310046 -0.399227 7e-06 0.0 -0.0 0.035171 0.019847 0.044854 0.072125 -0.081718 0.036592 0.127822 0.111972 0.05635 -119.704315 -73.095802 128.472549 39.10046 -19.369778 -54.678059 67.506401 2.20959 0.405656 14.541263 6.75772 -65.721764 17.636633 -26.322731 52.41119 -19.466658 -14.395597 29.410389 1e-06 -8.774819 -3e-06 14.764945 -17.721163 7.248444 -0.609779 -1.795652 -3.889328 -4.807088 -11.046811 -2.93785 4e-06 -20.976019 1e-06 -5.01997 -25.03356 -4.031883 5e-06 1e-06 -2e-06 -10.634535 -5.686971 -3.565586 10.573275 -17.922951 -3.1139 1e-06 -13.821209 1e-06 -0.501777 -31.181505 -4.027016 -13.114618 -60.566246 8.900681 -13.982718 -7.150198 -2.875044 13.772733 -8.401492 -3.218239 0.347728 -34.211555 0.771657 -0.963031 -17.73337 2.621021 1e-06 1e-06 -1e-06 -17.346426 -20.095219 -4.20178 21.757563 -1.638375 3.866429 2e-06 -6.338824 2e-06 -1.697592 -22.591743 -6.194003 -1e-06 -7e-06 -5e-06 27.943745 -82.903282 163.17804 22.518621 -13.616334 -51.584515 60.371338 0.013864 0.502034 8.509164 0.770073 -64.687347 22.182112 -20.375891 49.933315 -16.701815 -16.743526 28.476534 -3e-06 -12.690598 -0.0 15.942871 -17.464079 3.374429 -0.105921 -1.513855 -4.275883 -5.03904 -5.612873 -2.953558 6e-06 -11.020527 -2e-06 -6.111297 -15.895336 -3.840473 -0.0 0.0 1e-06 -10.283369 -5.680288 -4.341841 11.028289 -11.302407 -2.372632 -1.384266 -14.238583 -6.320121 -0.625434 -26.924196 -3.827603 -4.798652 -49.934017 -3.205594 -13.708525 -7.363475 -3.720939 18.141148 -14.052742 -3.242674 6e-06 -18.78727 -3e-06 -0.429709 -8.456045 2.555503 1e-06 1e-06 -0.0 -15.923532 -20.094484 -5.473586 30.419207 -7.190828 1.735926 4e-06 -8.162928 -1e-06 -1.861901 -22.861473 -6.167943 0.0 -4e-06 -1e-06 -176.187149 1.068454 1.963176 10.588025 -0.036924 -0.164123 -79.319588 -13.969751 -5.01097 -4.33954 1.47616 2.1257 -0.999999 1e-06 0.0 3.347273 -5.471852 2.192275 12.651659 0.00212 0.110619 -81.042084 -5.766709 -6.397036 -4.716402 0.717029 1.697632 -1.000003 0.0 0.0 
0.0 0.0 0.0 0.0 -0.0 0.0 1.425477 99.819778 0.116272 91.317024 3.690757 90.142868 -3.865924 -0.281159 0.418287 -12.168598 -0.033031 1.116397 16.925425 0.529469 -0.474004 20.52178 0.894397 2.371258 -2.659171 -0.585524 -0.015158 -33.416645 -2.295612 -0.423771 6e-06 -0.0 -0.0 0.036216 0.021736 0.048278 0.0814 -0.076456 0.040897 0.134102 0.110816 0.058651 -119.52697 -73.234406 128.240662 39.068249 -19.327385 -54.925945 67.212791 2.234174 0.449074 14.377693 6.75433 -66.154503 17.636623 -26.322737 52.411201 -19.466658 -14.395596 29.410393 0.0 -8.774819 -2e-06 14.707981 -17.761242 7.311077 -0.609776 -1.795653 -3.889329 -4.80709 -11.046809 -2.93785 3e-06 -20.976019 0.0 -5.019969 -25.03356 -4.03188 6e-06 2e-06 1e-06 -10.634535 -5.686968 -3.565587 10.573275 -17.922951 -3.113902 2e-06 -13.821208 2e-06 -0.501777 -31.181505 -4.027016 -13.121392 -60.511528 8.925438 -13.982712 -7.150197 -2.875042 13.772727 -8.40149 -3.21824 0.34773 -34.211544 0.771656 -0.963028 -17.733366 2.62102 0.0 1e-06 -1e-06 -17.346413 -20.095215 -4.201783 21.757555 -1.638373 3.866429 1e-06 -6.338824 3e-06 -1.69759 -22.591742 -6.194004 -1e-06 -6e-06 -3e-06 27.991337 -82.975349 163.129791 22.607294 -13.636995 -51.584473 60.586361 0.067036 0.572923 8.451149 0.820614 -64.619011 22.182119 -20.375893 49.933308 -16.701809 -16.743525 28.476522 -3e-06 -12.690598 -2e-06 15.876181 -17.4673 3.397059 -0.105918 -1.513854 -4.275881 -5.03904 -5.61287 -2.953556 5e-06 -11.020521 -1e-06 -6.111299 -15.89533 -3.840469 -1e-06 1e-06 1e-06 -10.283366 -5.680287 -4.341839 11.028288 -11.302402 -2.37263 -1.38427 -14.238577 -6.32012 -0.625437 -26.924185 -3.827601 -4.807512 -49.822277 -3.166411 -13.708519 -7.363473 -3.720938 18.141146 -14.052739 -3.242671 3e-06 -18.787268 -0.0 -0.429709 -8.456043 2.555503 2e-06 1e-06 1e-06 -15.923528 -20.094479 -5.473586 30.419205 -7.190826 1.735928 2e-06 -8.162925 -1e-06 -1.861902 -22.861465 -6.167941 -1e-06 -3e-06 -2e-06 -176.347229 1.070749 1.966899 10.852336 -0.038689 -0.172135 -79.408371 -13.974488 -4.996391 -4.34576 1.459957 2.118431 -0.999998 0.0 0.0 3.240396 -5.482153 2.12223 12.806684 0.004547 0.108441 -81.078949 -5.719924 -6.375763 -4.730082 0.720798 1.695716 -1.000001 0.0 -0.0 
0.0 0.0 0.0 0.0 -0.0 0.0 1.449693 99.81015 0.076858 91.317253 3.689951 90.107811 -3.819527 -0.2864 0.392526 -12.169631 -0.037885 1.115258 16.89304 0.554128 -0.460926 20.556301 0.972874 2.32878 -2.66302 -0.590923 0.070394 -33.303219 -2.26966 -0.397939 7e-06 0.0 -0.0 0.035412 0.021725 0.046751 0.077541 -0.072603 0.039007 0.129441 0.107213 0.056982 -119.221771 -73.354515 127.924568 39.087826 -19.350519 -55.227135 66.942329 2.328954 0.456582 14.222654 6.802238 -66.777481 17.636623 -26.32272 52.411186 -19.466656 -14.395592 29.410389 0.0 -8.774819 -2e-06 14.657743 -17.809589 7.359478 -0.609774 -1.795654 -3.889327 -4.807088 -11.046807 -2.937849 3e-06 -20.976015 -0.0 -5.019972 -25.033556 -4.031882 5e-06 0.0 0.0 -10.634531 -5.686968 -3.565587 10.573272 -17.922945 -3.113901 -1e-06 -13.821205 1e-06 -0.501777 -31.181498 -4.02702 -13.09749 -60.404266 8.919928 -13.982709 -7.150198 -2.87504 13.772727 -8.401489 -3.218241 0.347731 -34.211544 0.771654 -0.963029 -17.733366 2.621019 -0.0 1e-06 -1e-06 -17.346411 -20.095211 -4.201782 21.757551 -1.638372 3.866427 1e-06 -6.338823 1e-06 -1.697588 -22.59174 -6.194005 -0.0 -5e-06 -4e-06 28.004131 -83.078674 163.105621 22.749025 -13.765388 -51.648708 60.8489 0.127013 0.674896 8.348883 0.904836 -64.676628 22.182116 -20.375887 49.933315 -16.701811 -16.743523 28.476522 -2e-06 -12.690598 -2e-06 15.836631 -17.480536 3.400758 -0.10592 -1.513857 -4.275881 -5.03904 -5.612873 -2.953557 2e-06 -11.020525 -2e-06 -6.111297 -15.895334 -3.840472 1e-06 1e-06 1e-06 -10.28337 -5.680288 -4.341839 11.028291 -11.302406 -2.372631 -1.384266 -14.238583 -6.320123 -0.625437 -26.924194 -3.827604 -4.803007 -49.714394 -3.13512 -13.708524 -7.363478 -3.72094 18.141148 -14.052739 -3.242672 4e-06 -18.787271 -3e-06 -0.429706 -8.456043 2.555504 -0.0 1e-06 -1e-06 -15.923536 -20.094486 -5.473586 30.41921 -7.190827 1.735927 3e-06 -8.162925 -1e-06 -1.8619 -22.861469 -6.167945 -1e-06 -2e-06 1e-06 -176.470428 1.085735 1.959142 11.067723 -0.039976 -0.185191 -79.483841 -13.993062 -5.001463 -4.353077 1.439825 2.113085 -1.0 0.0 -0.0 3.127707 -5.496123 2.059437 12.992189 -0.000505 0.100099 -81.137299 -5.661158 -6.347311 -4.727427 0.721446 1.694278 -1.000001 0.0 -0.0 
0.0 0.0 0.0 0.0 -0.0 0.0 1.469406 99.803848 0.050017 91.323456 3.699752 90.053276 -3.785553 -0.290085 0.375773 -12.164852 -0.047827 1.100346 16.854477 0.559878 -0.448244 20.637262 1.046854 2.284653 -2.670075 -0.576301 0.145525 -33.143009 -2.21976 -0.336252 5e-06 0.0 -0.0 0.034385 0.018243 0.036695 0.067826 -0.073473 0.027823 0.122203 0.101113 0.047173 -118.974792 -73.451653 127.674431 39.111179 -19.423452 -55.506199 66.699524 2.44835 0.432336 14.097729 6.933037 -67.570686 17.636633 -26.322737 52.411198 -19.466661 -14.395602 29.410395 -1e-06 -8.774822 -2e-06 14.61684 -17.868437 7.414958 -0.609774 -1.795654 -3.889328 -4.807089 -11.046811 -2.937848 5e-06 -20.976019 1e-06 -5.019975 -25.03356 -4.031878 7e-06 1e-06 1e-06 -10.634531 -5.68697 -3.565588 10.573277 -17.922951 -3.113901 1e-06 -13.82121 2e-06 -0.501779 -31.181505 -4.027012 -13.086212 -60.374725 8.915777 -13.982714 -7.150196 -2.875041 13.772733 -8.401492 -3.218243 0.347733 -34.211555 0.771656 -0.963027 -17.733372 2.621019 1e-06 3e-06 -0.0 -17.346418 -20.095219 -4.201781 21.757565 -1.638374 3.866426 1e-06 -6.338825 0.0 -1.697592 -22.591747 -6.194005 2e-06 -3e-06 -2e-06 28.129129 -83.183907 162.983109 22.952774 -13.941292 -51.745838 61.125202 0.2175 0.774819 8.20127 0.991658 -64.807861 22.182117 -20.375898 49.933334 -16.701811 -16.743525 28.476534 -2e-06 -12.690598 -1e-06 15.859095 -17.521282 3.384215 -0.105921 -1.513855 -4.275882 -5.039041 -5.612873 -2.953557 3e-06 -11.020523 -1e-06 -6.111297 -15.895334 -3.840473 0.0 -0.0 -0.0 -10.283369 -5.680287 -4.341839 11.02829 -11.302405 -2.372632 -1.384267 -14.238581 -6.320121 -0.625439 -26.924187 -3.827601 -4.814543 -49.653309 -3.094645 -13.708524 -7.363475 -3.72094 18.141148 -14.052739 -3.242674 6e-06 -18.78727 -3e-06 -0.429711 -8.456043 2.555505 3e-06 0.0 1e-06 -15.923534 -20.094482 -5.473587 30.419214 -7.190827 1.735927 1e-06 -8.162925 -1e-06 -1.861902 -22.861473 -6.167944 -1e-06 -2e-06 -1e-06 -176.51532 1.107773 1.934117 11.16267 -0.038286 -0.194944 -79.516632 -14.02648 -5.038334 -4.356048 1.422842 2.109861 -0.999999 1e-06 0.0 3.051634 -5.511646 2.018523 13.126116 -0.011735 0.099562 -81.106247 -5.605822 -6.327398 -4.716928 0.719617 1.694173 -1.000003 -0.0 -0.0 
